<?xml version="1.0" encoding="UTF-8"?>
<svg version="1.1" xmlns="http://www.w3.org/2000/svg" width="512" height="512">
<path d="M0 0 C23.26260792 21.22014576 41.05054778 45.55635043 54.47241211 73.96264648 C54.98416992 75.03256836 55.49592773 76.10249023 56.02319336 77.20483398 C64.01507123 94.8257399 69.58245456 113.84325429 72.47241211 132.96264648 C72.58810547 133.7219043 72.70379883 134.48116211 72.82299805 135.26342773 C81.27361204 194.14188961 65.81776067 254.67540211 30.78491211 302.52514648 C27.25783726 307.09822545 23.50309275 311.41660538 19.58959961 315.66186523 C17.67033718 317.74755817 15.81536081 319.87220871 13.97241211 322.02514648 C7.68601742 329.22618982 0.82539971 335.85991435 -6.52758789 341.96264648 C-7.49954102 342.7734668 -8.47149414 343.58428711 -9.47290039 344.41967773 C-19.98022652 353.00891312 -31.37305443 360.88537975 -43.52758789 366.96264648 C5.31241211 367.29264648 54.15241211 367.62264648 104.47241211 367.96264648 C104.47241211 386.44264648 104.47241211 404.92264648 104.47241211 423.96264648 C-64.48758789 423.96264648 -233.44758789 423.96264648 -407.52758789 423.96264648 C-407.52758789 405.48264648 -407.52758789 387.00264648 -407.52758789 367.96264648 C-358.68758789 367.63264648 -309.84758789 367.30264648 -259.52758789 366.96264648 C-264.14758789 364.32264648 -268.76758789 361.68264648 -273.52758789 358.96264648 C-276.45966637 357.06440807 -279.31871279 355.17726966 -282.15258789 353.15014648 C-282.86278076 352.64588135 -283.57297363 352.14161621 -284.3046875 351.62207031 C-290.868618 346.8736793 -296.67714951 341.5552388 -302.52758789 335.96264648 C-303.9154571 334.74517403 -305.31044332 333.53572568 -306.71508789 332.33764648 C-314.86220512 325.23416824 -321.79684538 317.40028593 -328.52758789 308.96264648 C-329.47891602 307.84696289 -329.47891602 307.84696289 -330.44946289 306.70874023 C-341.22288979 293.90973101 -349.51394672 279.09108584 -356.52758789 263.96264648 C-356.8247168 263.33890137 -357.1218457 262.71515625 -357.42797852 262.07250977 C-366.67835573 242.5993573 -371.90953842 222.15140937 -375.52758789 200.96264648 C-375.66036133 200.21805176 -375.79313477 199.47345703 -375.92993164 198.70629883 C-385.25116482 144.72955108 -369.7136182 84.90834905 -338.72265625 40.35546875 C-314.48744025 6.28689972 -283.28818802 -20.19561692 -245.52758789 -38.03735352 C-243.92270508 -38.80499023 -243.92270508 -38.80499023 -242.28540039 -39.58813477 C-224.66640954 -47.57914406 -205.64630875 -53.15284352 -186.52758789 -56.03735352 C-185.7630127 -56.15304688 -184.9984375 -56.26874023 -184.21069336 -56.38793945 C-117.34949597 -65.90524611 -49.93101662 -45.02785924 0 0 Z " fill="#A5A4A4" transform="translate(407.527587890625,88.037353515625)"/>
<path d="M0 0 C23.26260792 21.22014576 41.05054778 45.55635043 54.47241211 73.96264648 C54.98416992 75.03256836 55.49592773 76.10249023 56.02319336 77.20483398 C64.01507123 94.8257399 69.58245456 113.84325429 72.47241211 132.96264648 C72.58810547 133.7219043 72.70379883 134.48116211 72.82299805 135.26342773 C81.27361204 194.14188961 65.81776067 254.67540211 30.78491211 302.52514648 C27.25783726 307.09822545 23.50309275 311.41660538 19.58959961 315.66186523 C17.67033718 317.74755817 15.81536081 319.87220871 13.97241211 322.02514648 C3.42043646 334.09856978 3.42043646 334.09856978 -3.52758789 337.96264648 C-3.62233398 336.83342773 -3.62233398 336.83342773 -3.71899414 335.68139648 C-6.0919296 315.09930369 -18.85578352 294.27660197 -33.52758789 279.96264648 C-34.5730483 278.71581771 -35.61432114 277.46547193 -36.65258789 276.21264648 C-52.03526107 258.54738309 -78.30716307 242.36945476 -100.52758789 234.96264648 C-99.02475336 230.94035406 -96.7575594 229.59056881 -93.15258789 227.40014648 C-80.24821478 219.01307483 -67.91231506 207.27447873 -61.52758789 192.96264648 C-60.86758789 192.96264648 -60.20758789 192.96264648 -59.52758789 192.96264648 C-57.72454634 187.66170433 -56.02035165 182.3595616 -54.52758789 176.96264648 C-53.86758789 176.96264648 -53.20758789 176.96264648 -52.52758789 176.96264648 C-52.40641602 176.14022461 -52.28524414 175.31780273 -52.16040039 174.47045898 C-51.99282227 173.35413086 -51.82524414 172.23780273 -51.65258789 171.08764648 C-51.40895508 169.45182617 -51.40895508 169.45182617 -51.16040039 167.78295898 C-50.82227553 165.74168665 -50.46935571 163.7010496 -50.01977539 161.68139648 C-48.60037915 155.29411341 -48.21385475 149.24694145 -48.27758789 142.71264648 C-48.28773926 141.20093872 -48.28773926 141.20093872 -48.2980957 139.65869141 C-48.45439899 128.32942929 -49.75629262 118.08668737 -53.72290039 107.38842773 C-54.52758789 104.96264648 -54.52758789 104.96264648 -54.52758789 101.96264648 C-55.18758789 101.96264648 -55.84758789 101.96264648 -56.52758789 101.96264648 C-56.82149414 101.08866211 -56.82149414 101.08866211 -57.12133789 100.19702148 C-59.51399326 93.63784556 -62.81164794 88.23375213 -66.82055664 82.52905273 C-68.52758789 79.96264648 -68.52758789 79.96264648 -69.52758789 76.96264648 C-70.51758789 76.63264648 -71.50758789 76.30264648 -72.52758789 75.96264648 C-73.92993164 74.46655273 -73.92993164 74.46655273 -75.46508789 72.52514648 C-86.68775998 59.46688206 -104.20856732 46.64806765 -121.52758789 43.96264648 C-121.52758789 43.30264648 -121.52758789 42.64264648 -121.52758789 41.96264648 C-122.53821289 41.81827148 -123.54883789 41.67389648 -124.59008789 41.52514648 C-126.88175589 41.19776534 -129.17080405 40.84741792 -131.44946289 40.43920898 C-137.16872472 39.62782056 -142.95111426 39.77830829 -148.71508789 39.77514648 C-149.87073242 39.76290039 -151.02637695 39.7506543 -152.21704102 39.73803711 C-159.86070493 39.72516176 -167.03764743 40.45989442 -174.52758789 41.96264648 C-175.75993164 42.19725586 -176.99227539 42.43186523 -178.26196289 42.67358398 C-183.82250718 43.89805617 -188.79149408 45.23569836 -193.78149414 48.00561523 C-195.52758789 48.96264648 -195.52758789 48.96264648 -198.84008789 50.27514648 C-209.34703889 54.76793775 -217.41927885 62.15810694 -225.52758789 69.96264648 C-226.17469727 70.53499023 -226.82180664 71.10733398 -227.48852539 71.69702148 C-236.11284016 79.55203118 -243.03839148 90.89616532 -246.52758789 101.96264648 C-247.18758789 101.96264648 -247.84758789 101.96264648 -248.52758789 101.96264648 C-248.95967661 103.97906052 -249.39026065 105.99580091 -249.81665039 108.01342773 C-250.52758789 110.96264648 -250.52758789 110.96264648 -251.55102539 114.06811523 C-254.4608285 123.53013455 -254.91413727 132.67396889 -254.90258789 142.52514648 C-254.90476318 144.48810669 -254.90476318 144.48810669 -254.90698242 146.49072266 C-254.8354653 152.72516776 -254.56115443 158.07440905 -252.52758789 163.96264648 C-252.11390586 166.26854076 -251.73724305 168.58146428 -251.40258789 170.90014648 C-251.23500977 172.04354492 -251.06743164 173.18694336 -250.89477539 174.36499023 C-250.77360352 175.2222168 -250.65243164 176.07944336 -250.52758789 176.96264648 C-249.86758789 176.96264648 -249.20758789 176.96264648 -248.52758789 176.96264648 C-247.87987282 178.87867806 -247.23448841 180.79549762 -246.59008789 182.71264648 C-246.23043945 183.77999023 -245.87079102 184.84733398 -245.50024414 185.94702148 C-244.7477667 188.28000374 -244.07781545 190.57639643 -243.52758789 192.96264648 C-242.86758789 192.96264648 -242.20758789 192.96264648 -241.52758789 192.96264648 C-240.43900923 194.52163587 -239.43325121 196.13865293 -238.46508789 197.77514648 C-233.08678961 206.44514185 -227.0039838 214.17525377 -219.05883789 220.62280273 C-217.52758789 221.96264648 -217.52758789 221.96264648 -216.52758789 223.96264648 C-214.87937545 224.99277926 -213.2064723 225.98329725 -211.52758789 226.96264648 C-209.91502332 227.9701617 -208.31134026 228.99198156 -206.71508789 230.02514648 C-205.52979492 230.78504883 -205.52979492 230.78504883 -204.32055664 231.56030273 C-203.43303711 232.25446289 -203.43303711 232.25446289 -202.52758789 232.96264648 C-202.52758789 233.62264648 -202.52758789 234.28264648 -202.52758789 234.96264648 C-203.51758789 234.96264648 -204.50758789 234.96264648 -205.52758789 234.96264648 C-205.52758789 235.62264648 -205.52758789 236.28264648 -205.52758789 236.96264648 C-207.27147251 237.7243924 -209.01536241 238.48612622 -210.75927734 239.24780273 C-212.23883484 239.89497609 -213.7178331 240.54342937 -215.19628906 241.19311523 C-218.19141273 242.5088692 -221.18457214 243.82063997 -224.20727539 245.07202148 C-242.07197763 252.53200703 -259.38421682 267.07077579 -271.52758789 281.96264648 C-272.36032227 282.95780273 -273.19305664 283.95295898 -274.05102539 284.97827148 C-285.98786843 299.48906256 -299.43581431 318.46075989 -299.52758789 337.96264648 C-310.95660756 330.05024825 -319.96227684 319.81096105 -328.52758789 308.96264648 C-329.15793945 308.22272461 -329.78829102 307.48280273 -330.43774414 306.72045898 C-341.22011624 293.92331099 -349.51229437 279.09464995 -356.52758789 263.96264648 C-356.8247168 263.33890137 -357.1218457 262.71515625 -357.42797852 262.07250977 C-366.67835573 242.5993573 -371.90953842 222.15140937 -375.52758789 200.96264648 C-375.66036133 200.21805176 -375.79313477 199.47345703 -375.92993164 198.70629883 C-385.25116482 144.72955108 -369.7136182 84.90834905 -338.72265625 40.35546875 C-314.48744025 6.28689972 -283.28818802 -20.19561692 -245.52758789 -38.03735352 C-243.92270508 -38.80499023 -243.92270508 -38.80499023 -242.28540039 -39.58813477 C-224.66640954 -47.57914406 -205.64630875 -53.15284352 -186.52758789 -56.03735352 C-185.7630127 -56.15304688 -184.9984375 -56.26874023 -184.21069336 -56.38793945 C-117.34949597 -65.90524611 -49.93101662 -45.02785924 0 0 Z " fill="#D5D5D5" transform="translate(407.527587890625,88.037353515625)"/>
<path d="M0 0 C168.96 0 337.92 0 512 0 C512 17.49 512 34.98 512 53 C343.04 53 174.08 53 0 53 C0 35.51 0 18.02 0 0 Z " fill="#010101" transform="translate(0,459)"/>
<path d="M0 0 C168.96 0 337.92 0 512 0 C512 0.99 512 1.98 512 3 C343.04 3 174.08 3 0 3 C0 2.01 0 1.02 0 0 Z " fill="#FFFFFF" transform="translate(0,456)"/>
<path d="M0 0 C2.12890625 0.4765625 2.12890625 0.4765625 4.69140625 2.4765625 C6.86835897 7.01976819 6.97952293 10.99014452 5.31640625 15.8515625 C4.12890625 17.4765625 4.12890625 17.4765625 1.12890625 19.4765625 C-5.02125349 20.14748902 -5.02125349 20.14748902 -8.24609375 17.6015625 C-11.20558366 13.73146031 -11.4908509 10.2432241 -10.87109375 5.4765625 C-8.38433709 0.28680946 -5.4006303 -0.33809547 0 0 Z " fill="#E5E5E5" transform="translate(46.87109375,475.5234375)"/>
<path d="M0 0 C1.74609375 1.15625 1.74609375 1.15625 3 3 C3.68326251 7.0483304 3.59333986 10.94177927 3 15 C0.46553184 18.27989997 -0.98361289 18.80942742 -5 19.5625 C-8 19 -8 19 -10.875 17.125 C-13.84649145 12.75515964 -13.90105272 9.13773328 -13 4 C-10.27706917 -0.97230847 -5.17125498 -1.05710737 0 0 Z " fill="#F0F0F0" transform="translate(450,476)"/>
<path d="M0 0 C1.65 0 3.3 0 5 0 C6.58203125 1.75 6.58203125 1.75 7.8125 4 C8.23144531 4.7425 8.65039062 5.485 9.08203125 6.25 C9.38496094 6.8275 9.68789062 7.405 10 8 C10.33 5.36 10.66 2.72 11 0 C12.65 0 14.3 0 16 0 C16 5.94 16 11.88 16 18 C14.35 18.33 12.7 18.66 11 19 C8.525 15.04 8.525 15.04 6 11 C5.67 13.64 5.34 16.28 5 19 C3.35 18.67 1.7 18.34 0 18 C0 12.06 0 6.12 0 0 Z " fill="#E9E9E9" transform="translate(161,476)"/>
<path d="M0 0 C5 0 5 0 6.58203125 1.53125 C6.98808594 2.1809375 7.39414062 2.830625 7.8125 3.5 C8.23144531 4.1496875 8.65039062 4.799375 9.08203125 5.46875 C9.38496094 5.9740625 9.68789062 6.479375 10 7 C10.33 4.69 10.66 2.38 11 0 C12.65 0 14.3 0 16 0 C16 6.27 16 12.54 16 19 C11 18 11 18 9.41796875 16.15234375 C8.27864583 14.1015625 7.13932292 12.05078125 6 10 C5.67 12.97 5.34 15.94 5 19 C3.35 18.67 1.7 18.34 0 18 C0 12.06 0 6.12 0 0 Z " fill="#EAEAEA" transform="translate(55,476)"/>
<path d="M0 0 C10.42888497 -0.36807829 10.42888497 -0.36807829 12.87890625 1.2109375 C14.40886156 3.65246897 14.08332493 4.99769313 13.625 7.8125 C13.08213602 11.79933973 13.06204078 15.03972772 14 19 C12.35 19 10.7 19 9 19 C8.34 16.69 7.68 14.38 7 12 C6.34 12 5.68 12 5 12 C5 14.31 5 16.62 5 19 C3.35 19 1.7 19 0 19 C0 12.73 0 6.46 0 0 Z " fill="#E0E0E0" transform="translate(357,476)"/>
<path d="M0 0 C1.65 0 3.3 0 5 0 C6.58203125 1.75 6.58203125 1.75 7.8125 4 C8.23144531 4.7425 8.65039062 5.485 9.08203125 6.25 C9.38496094 6.8275 9.68789063 7.405 10 8 C10.33 5.36 10.66 2.72 11 0 C12.32 0 13.64 0 15 0 C15 6.27 15 12.54 15 19 C13.68 19 12.36 19 11 19 C9.515625 17.25 9.515625 17.25 8.25 15 C7.82203125 14.2575 7.3940625 13.515 6.953125 12.75 C6.48132813 11.88375 6.48132813 11.88375 6 11 C5.67 13.64 5.34 16.28 5 19 C3.35 19 1.7 19 0 19 C0 12.73 0 6.46 0 0 Z " fill="#F1F1F1" transform="translate(456,476)"/>
<path d="M0 0 C1.65 0 3.3 0 5 0 C5.33 1.32 5.66 2.64 6 4 C6.37125 3.34 6.7425 2.68 7.125 2 C9 0 9 0 12.1875 -0.25 C13.115625 -0.1675 14.04375 -0.085 15 0 C13.84826645 2.46800047 12.95216435 4.04783565 11 6 C11.28356955 10.34806636 12.33836186 12.64402148 15 16 C15 16.99 15 17.98 15 19 C12.6875 19.3125 12.6875 19.3125 10 19 C8.3125 16.5625 8.3125 16.5625 7 14 C6.34 13.67 5.68 13.34 5 13 C5 14.98 5 16.96 5 19 C3.35 19 1.7 19 0 19 C0 12.73 0 6.46 0 0 Z " fill="#EDEDED" transform="translate(122,476)"/>
<path d="M0 0 C2.31 0 4.62 0 7 0 C7.84080019 2.41429769 8.67281402 4.83103993 9.5 7.25 C9.73847656 7.93191406 9.97695312 8.61382812 10.22265625 9.31640625 C11.39421287 12.76413003 12 15.31702904 12 19 C10.35 19 8.7 19 7 19 C6.67 17.68 6.34 16.36 6 15 C4.35 14.67 2.7 14.34 1 14 C0.67 15.65 0.34 17.3 0 19 C-1.65 19 -3.3 19 -5 19 C-3.64746536 12.54945018 -1.96939767 6.28894321 0 0 Z " fill="#E4E4E4" transform="translate(92,476)"/>
<path d="M0 0 C4.29 0 8.58 0 13 0 C13 1.32 13 2.64 13 4 C10.36 4 7.72 4 5 4 C5 4.99 5 5.98 5 7 C7.31 7 9.62 7 12 7 C12 8.32 12 9.64 12 11 C9.69 11 7.38 11 5 11 C5 11.99 5 12.98 5 14 C7.64 14 10.28 14 13 14 C13 15.65 13 17.3 13 19 C8.71 19 4.42 19 0 19 C0 12.73 0 6.46 0 0 Z " fill="#E8E8E8" transform="translate(389,476)"/>
<path d="M0 0 C3.96 0 7.92 0 12 0 C12 1.32 12 2.64 12 4 C9.69 4 7.38 4 5 4 C5 4.99 5 5.98 5 7 C7.31 7 9.62 7 12 7 C12 8.32 12 9.64 12 11 C9.69 11 7.38 11 5 11 C5 11.99 5 12.98 5 14 C7.31 14 9.62 14 12 14 C12.33 15.65 12.66 17.3 13 19 C8.71 19 4.42 19 0 19 C0 12.73 0 6.46 0 0 Z " fill="#EAEAEA" transform="translate(180,476)"/>
<path d="M0 0 C10.46606289 -0.36939045 10.46606289 -0.36939045 12.86328125 1.2890625 C14 3 14 3 13.875 6.5625 C13 10 13 10 10 12 C7.3125 12.125 7.3125 12.125 5 12 C5 14.31 5 16.62 5 19 C3.35 19 1.7 19 0 19 C0 12.73 0 6.46 0 0 Z " fill="#E1E1E1" transform="translate(74,476)"/>
<path d="M0 0 C0.90492188 0.02320313 1.80984375 0.04640625 2.7421875 0.0703125 C4.10730469 0.09738281 4.10730469 0.09738281 5.5 0.125 C6.19867188 0.14820313 6.89734375 0.17140625 7.6171875 0.1953125 C7.6171875 1.5153125 7.6171875 2.8353125 7.6171875 4.1953125 C5.3071875 4.1953125 2.9971875 4.1953125 0.6171875 4.1953125 C2.01093822 6.98281394 3.77963611 7.08797537 6.6171875 8.1953125 C8.6171875 10.1953125 8.6171875 10.1953125 8.9921875 13.1328125 C8.6171875 16.1953125 8.6171875 16.1953125 7.1171875 18.0703125 C3.49458627 19.70048305 0.57172092 19.39303917 -3.3828125 19.1953125 C-3.7128125 17.5453125 -4.0428125 15.8953125 -4.3828125 14.1953125 C-1.7428125 14.1953125 0.8971875 14.1953125 3.6171875 14.1953125 C3.6171875 13.5353125 3.6171875 12.8753125 3.6171875 12.1953125 C2.5034375 11.9271875 1.3896875 11.6590625 0.2421875 11.3828125 C-3.3828125 10.1953125 -3.3828125 10.1953125 -5.3828125 7.1953125 C-4.99412171 3.21123191 -4.47217555 0.36657177 0 0 Z " fill="#E9E9E9" transform="translate(143.3828125,475.8046875)"/>
<path d="M0 0 C3.96 0 7.92 0 12 0 C12 1.32 12 2.64 12 4 C9.69 4 7.38 4 5 4 C5 4.99 5 5.98 5 7 C6.98 7 8.96 7 11 7 C11 8.32 11 9.64 11 11 C9.02 11 7.04 11 5 11 C5 11.99 5 12.98 5 14 C7.31 14 9.62 14 12 14 C12 15.65 12 17.3 12 19 C8.04 19 4.08 19 0 19 C0 12.73 0 6.46 0 0 Z " fill="#EEEEEE" transform="translate(374,476)"/>
<path d="M0 0 C0.33 1.32 0.66 2.64 1 4 C-1.64 4.33 -4.28 4.66 -7 5 C-7 7.64 -7 10.28 -7 13 C-4.69 13.33 -2.38 13.66 0 14 C0.33 15.32 0.66 16.64 1 18 C-2.19233485 19.59616743 -5.53461497 19.51466114 -9 19 C-11.43119623 17.12984906 -12.64069173 15.71861655 -14 13 C-14.36104805 8.59521377 -14.46851135 6.02220658 -12.625 2 C-8.65400033 -1.02552356 -4.8219397 -0.41409788 0 0 Z " fill="#E6E6E6" transform="translate(119,476)"/>
<path d="M0 0 C1.33998047 0.06960938 1.33998047 0.06960938 2.70703125 0.140625 C3.60808594 0.17671875 4.50914062 0.2128125 5.4375 0.25 C6.46810547 0.31960938 6.46810547 0.31960938 7.51953125 0.390625 C7.84953125 1.710625 8.17953125 3.030625 8.51953125 4.390625 C6.81796875 4.6071875 6.81796875 4.6071875 5.08203125 4.828125 C1.71175924 5.00233978 1.71175924 5.00233978 0.51953125 6.390625 C0.47860188 8.72359933 0.47711402 11.05767725 0.51953125 13.390625 C3.15953125 13.720625 5.79953125 14.050625 8.51953125 14.390625 C8.51953125 15.710625 8.51953125 17.030625 8.51953125 18.390625 C5.30326594 19.99875766 2.00729838 19.84555115 -1.48046875 19.390625 C-3.98046875 18.078125 -3.98046875 18.078125 -5.48046875 15.390625 C-6.09496024 10.73602856 -6.47527227 6.3156344 -4.27734375 2.0625 C-2.48046875 0.390625 -2.48046875 0.390625 0 0 Z " fill="#EEEEEE" transform="translate(426.48046875,475.609375)"/>
<path d="M0 0 C0 1.32 0 2.64 0 4 C-1.7015625 4.2165625 -1.7015625 4.2165625 -3.4375 4.4375 C-6.80777201 4.61171478 -6.80777201 4.61171478 -8 6 C-8.04092937 8.33297433 -8.04241723 10.66705225 -8 13 C-5.36 13.33 -2.72 13.66 0 14 C-0.33 15.65 -0.66 17.3 -1 19 C-8.04477612 19.59701493 -8.04477612 19.59701493 -12 17.125 C-14.81177501 12.73160154 -14.88226521 9.07944924 -14 4 C-11.0952097 -1.54550875 -5.50906147 -0.37848514 0 0 Z " fill="#EFEFEF" transform="translate(34,476)"/>
<path d="M0 0 C3.96 0 7.92 0 12 0 C12 1.32 12 2.64 12 4 C9.69 4 7.38 4 5 4 C5 4.99 5 5.98 5 7 C6.98 7 8.96 7 11 7 C11 8.32 11 9.64 11 11 C9.02 11 7.04 11 5 11 C5 13.64 5 16.28 5 19 C3.35 19 1.7 19 0 19 C0 12.73 0 6.46 0 0 Z " fill="#F0F0F0" transform="translate(343,476)"/>
<path d="M0 0 C4.62 0 9.24 0 14 0 C14 1.32 14 2.64 14 4 C12.35 4 10.7 4 9 4 C9 8.95 9 13.9 9 19 C7.35 19 5.7 19 4 19 C4 14.05 4 9.1 4 4 C2.68 4 1.36 4 0 4 C0 2.68 0 1.36 0 0 Z " fill="#ECECEC" transform="translate(194,476)"/>
<path d="M0 0 C0.33 0 0.66 0 1 0 C1 5.94 1 11.88 1 18 C0.01 17.01 -0.98 16.02 -2 15 C-4.32275177 14.59952556 -6.65739357 14.2602896 -9 14 C-10 13 -10 13 -10.1328125 11.1875 C-10.13023438 10.465625 -10.12765625 9.74375 -10.125 9 C-10.12757812 8.278125 -10.13015625 7.55625 -10.1328125 6.8125 C-10 5 -10 5 -9 4 C-6.34536879 3.54540142 -3.67810862 3.29756762 -1 3 C-0.67 2.01 -0.34 1.02 0 0 Z " fill="#121212" transform="translate(121,476)"/>
<path d="M0 0 C4.29238623 1.65091778 6.8793915 4.73754566 10 8 C8.34908222 12.29238623 5.26245434 14.8793915 2 18 C0.68 17.34 -0.64 16.68 -2 16 C-0.66666667 13.33333333 0.66666667 10.66666667 2 8 C0.68 6.68 -0.64 5.36 -2 4 C-1.34 2.68 -0.68 1.36 0 0 Z " fill="#DFDFDF" transform="translate(488,477)"/>
<path d="M0 0 C1.65 0 3.3 0 5 0 C5 6.27 5 12.54 5 19 C3.35 19 1.7 19 0 19 C0 12.73 0 6.46 0 0 Z " fill="#F1F1F1" transform="translate(12,476)"/>
<path d="M0 0 C1.65 0 3.3 0 5 0 C5 5.94 5 11.88 5 18 C3.35 18.33 1.7 18.66 0 19 C0 12.73 0 6.46 0 0 Z " fill="#E9E9E9" transform="translate(413,476)"/>
<path d="M0 0 C1.67542976 0.28604898 3.34385343 0.61781233 5 1 C5 3.64 5 6.28 5 9 C3.34385343 9.38218767 1.67542976 9.71395102 0 10 C-1 9 -1 9 -1.1328125 7.1875 C-1.13023437 6.465625 -1.12765625 5.74375 -1.125 5 C-1.12757813 4.278125 -1.13015625 3.55625 -1.1328125 2.8125 C-1 1 -1 1 0 0 Z " fill="#0B0B0B" transform="translate(443,480)"/>
<path d="M0 0 C0.66 0.33 1.32 0.66 2 1 C-5.26 8.26 -12.52 15.52 -20 23 C-20.66 22.67 -21.32 22.34 -22 22 C-21.20335937 21.22076172 -21.20335937 21.22076172 -20.390625 20.42578125 C-15.99731263 16.11075057 -15.99731263 16.11075057 -12 11.4375 C-9.54382116 8.44403204 -6.7481878 6.05553339 -3.8046875 3.55078125 C-1.92288746 1.97318991 -1.92288746 1.97318991 0 0 Z " fill="#AFAEAE" transform="translate(155,350)"/>
<path d="M0 0 C1.98 0.495 1.98 0.495 4 1 C4 3.97 4 6.94 4 10 C2.35 10 0.7 10 -1 10 C-1.02689216 8.52093108 -1.04634621 7.04172517 -1.0625 5.5625 C-1.07410156 4.73878906 -1.08570313 3.91507812 -1.09765625 3.06640625 C-1 1 -1 1 0 0 Z " fill="#020202" transform="translate(43,480)"/>
<path d="M0 0 C1.98 0.495 1.98 0.495 4 1 C3.67 2.32 3.34 3.64 3 5 C1.68 4.67 0.36 4.34 -1 4 C-0.67 2.68 -0.34 1.36 0 0 Z " fill="#DADADA" transform="translate(155,490)"/>
</svg>
